<?xml version="1.0" standalone="no"?>
<!DOCTYPE svg PUBLIC "-//W3C//DTD SVG 20010904//EN"
 "http://www.w3.org/TR/2001/REC-SVG-20010904/DTD/svg10.dtd">
<svg version="1.0" xmlns="http://www.w3.org/2000/svg"
 width="126.000000pt" height="120.000000pt" viewBox="0 0 126.000000 120.000000"
 preserveAspectRatio="xMidYMid meet">
<metadata>
Created by potrace 1.15, written by Peter Selinger 2001-2017
</metadata>
<g transform="translate(0.000000,120.000000) scale(0.100000,-0.100000)"
fill="#000000" stroke="none">
<path d="M516 1184 c-73 -27 -142 -90 -183 -169 -38 -72 -44 -197 -13 -277 26
-71 97 -150 164 -186 46 -24 62 -27 151 -27 85 0 106 3 143 23 67 36 129 98
159 161 25 49 28 67 28 151 0 76 -4 104 -22 142 -31 69 -99 137 -168 169 -51
25 -72 29 -140 28 -44 0 -98 -7 -119 -15z m238 -44 c69 -33 113 -77 147 -146
42 -85 45 -174 7 -255 -111 -239 -425 -246 -540 -11 -53 108 -46 206 24 309
80 118 239 163 362 103z"/>
<path d="M613 1030 c-3 -11 -9 -20 -14 -20 -21 0 -49 -46 -49 -80 0 -45 28
-77 76 -86 42 -8 62 -40 45 -71 -25 -47 -91 -24 -91 32 0 16 -6 25 -15 25 -11
0 -15 -11 -15 -39 0 -31 6 -44 28 -63 15 -13 31 -31 35 -41 9 -23 37 -22 37 1
0 10 13 28 29 39 34 26 43 60 25 101 -13 33 -41 52 -73 52 -11 0 -28 11 -37
25 -15 23 -15 27 0 50 28 43 66 30 80 -27 9 -39 36 -37 36 3 0 21 -10 40 -30
61 -16 16 -30 36 -30 44 0 22 -31 17 -37 -6z"/>
<path d="M25 875 c-25 -24 -25 -25 -25 -229 0 -113 4 -215 9 -228 12 -33 191
-230 204 -225 25 8 13 28 -74 126 -109 122 -108 119 -109 347 0 149 2 162 20
179 19 17 21 17 39 1 17 -16 18 -28 14 -118 -6 -94 -5 -100 13 -96 17 3 19 14
22 111 3 103 2 108 -22 132 -32 32 -60 32 -91 0z"/>
<path d="M1147 872 c-27 -28 -28 -31 -25 -133 2 -84 6 -104 18 -104 12 0 16
19 18 99 3 97 11 126 37 126 27 0 35 -52 35 -236 l0 -184 -26 -23 c-14 -12
-64 -64 -111 -115 -65 -71 -83 -96 -74 -105 9 -9 39 16 126 103 l115 115 0
216 c0 204 -1 218 -21 243 -27 34 -58 33 -92 -2z"/>
<path d="M146 584 c-10 -10 -16 -33 -16 -66 0 -49 2 -52 63 -109 60 -56 97
-74 97 -45 0 7 -29 39 -65 71 -52 46 -65 62 -65 86 0 36 22 47 54 25 13 -8 65
-54 115 -101 l90 -87 3 -96 c2 -78 6 -97 18 -97 12 0 16 18 18 89 2 50 -2 102
-8 116 -6 15 -54 66 -105 114 -125 116 -164 135 -199 100z"/>
<path d="M914 487 l-105 -103 3 -109 c2 -90 6 -110 18 -110 12 0 15 18 17 97
0 53 5 103 10 112 4 8 50 53 100 100 80 74 96 84 115 77 14 -5 24 -18 26 -33
2 -20 -10 -38 -57 -83 -34 -32 -61 -64 -61 -72 0 -30 40 -9 98 51 52 54 62 70
62 100 0 49 -28 76 -80 76 -38 0 -48 -7 -146 -103z"/>
<path d="M130 70 c0 -56 3 -70 15 -70 11 0 15 12 15 50 l0 50 150 0 150 0 0
-45 c0 -34 4 -45 15 -45 13 0 15 11 13 63 l-3 62 -177 3 -178 2 0 -70z"/>
<path d="M770 75 c0 -51 3 -65 15 -65 11 0 15 12 15 45 l0 45 150 0 150 0 0
-45 c0 -38 3 -45 20 -45 16 0 20 7 20 34 0 18 -3 48 -6 65 l-6 31 -179 0 -179
0 0 -65z"/>
</g>
</svg>
