<svg xmlns="http://www.w3.org/2000/svg" width="46" height="56" viewBox="0 0 46 56">
    <g fill="none" fill-rule="nonzero">
        <g fill="#000">
            <path d="M36.999 23.155c-4.398 0-7.975-3.61-7.975-8.05 0-4.438 3.577-8.05 7.975-8.05 4.397 0 7.975 3.612 7.975 8.05 0 .91-.732 1.649-1.634 1.649a1.641 1.641 0 0 1-1.633-1.649c0-2.62-2.112-4.752-4.708-4.752-2.597 0-4.709 2.132-4.709 4.752 0 2.621 2.113 4.753 4.709 4.753.902 0 1.633.738 1.633 1.649 0 .91-.731 1.648-1.633 1.648zM39.536 52.904h-3.433c-2.693 0-4.947-2.037-5.243-4.74L29.14 32.5a1.658 1.658 0 0 1 .407-1.281c.31-.35.752-.55 1.217-.55h12.47c.902 0 1.633.739 1.633 1.65 0 .91-.731 1.648-1.633 1.648H32.588l1.519 13.836a2.013 2.013 0 0 0 1.996 1.805h3.433c.902 0 1.633.738 1.633 1.648 0 .91-.731 1.649-1.633 1.649z"/>
        </g>
        <path fill="#FFF" d="M45 40H29V25.396C29 23.52 30.601 22 32.576 22h8.848C43.4 22 45 23.52 45 25.396V40z"/>
        <g fill="#000">
            <path d="M44.274 41.14H29.123c-.91 0-1.649-.731-1.649-1.633V25.078c0-2.75 2.259-4.989 5.035-4.989h8.378c2.777 0 5.035 2.238 5.035 4.989v14.429c0 .902-.738 1.633-1.648 1.633zM30.77 37.873h11.854V25.078c0-.95-.78-1.722-1.738-1.722H32.51c-.959 0-1.738.773-1.738 1.722v12.795zM11.527 52.905H8.06c-2.718 0-4.993-2.02-5.293-4.696L1.033 32.685a1.625 1.625 0 0 1 .41-1.27c.313-.346.76-.543 1.228-.543H15.26c.91 0 1.648.731 1.648 1.633s-.738 1.634-1.648 1.634H4.513l1.533 13.71a2.02 2.02 0 0 0 2.016 1.789h3.465c.91 0 1.648.731 1.648 1.633s-.738 1.634-1.648 1.634z"/>
        </g>
        <path fill="#FFF" d="M18 40H2V25.396C2 23.52 3.601 22 5.576 22h8.848C16.399 22 18 23.52 18 25.396V40z"/>
        <g fill="#000">
            <path d="M16.27 40.569H1.665c-.877 0-1.589-.729-1.589-1.626V24.58c0-2.739 2.178-4.967 4.854-4.967h8.077c2.677 0 4.854 2.228 4.854 4.967v14.363c0 .898-.711 1.626-1.59 1.626zM3.255 37.316H14.68V24.58c0-.945-.751-1.714-1.675-1.714H4.93c-.924 0-1.675.769-1.675 1.714v12.736z"/>
            <path d="M8.968 22.936c-4.28 0-7.761-3.562-7.761-7.94 0-4.379 3.481-7.941 7.76-7.941 4.28 0 7.761 3.562 7.761 7.94 0 4.379-3.481 7.94-7.76 7.94zm0-12.629c-2.527 0-4.582 2.103-4.582 4.688 0 2.585 2.055 4.688 4.582 4.688 2.526 0 4.582-2.103 4.582-4.688 0-2.585-2.056-4.688-4.582-4.688zM25.604 56h-4.94c-2.911 0-5.348-2.233-5.669-5.193l-2.272-20.983c-.05-.46.094-.92.396-1.264a1.573 1.573 0 0 1 1.184-.542h16.065c.878 0 1.59.729 1.59 1.626 0 .898-.712 1.627-1.59 1.627h-14.29l2.077 19.178c.142 1.31 1.22 2.299 2.51 2.299h4.939c.877 0 1.59.728 1.59 1.626 0 .898-.712 1.626-1.59 1.626z"/>
        </g>
        <path fill="#FFF" d="M34 39H14V22.396C14 19.968 16.001 18 18.47 18h11.06c2.469 0 4.47 1.968 4.47 4.396V39z"/>
        <g fill="#000">
            <path d="M31.36 39.933H11.64c-.896 0-1.622-.713-1.622-1.592V21.998c0-3.263 2.705-5.919 6.029-5.919h10.906c3.324 0 6.029 2.656 6.029 5.92V38.34c0 .88-.726 1.592-1.621 1.592zm-18.1-3.184h16.48V22c0-1.51-1.25-2.737-2.787-2.737H16.047c-1.537 0-2.787 1.228-2.787 2.736V36.75z"/>
            <path d="M21.5 19.16c-5.38 0-9.758-4.297-9.758-9.58C11.742 4.298 16.119 0 21.5 0c5.38 0 9.758 4.298 9.758 9.58 0 5.283-4.377 9.58-9.758 9.58zm0-15.977c-3.593 0-6.516 2.87-6.516 6.397 0 3.528 2.923 6.397 6.516 6.397s6.516-2.87 6.516-6.397-2.923-6.397-6.516-6.397z"/>
        </g>
    </g>
</svg>
