<?xml version="1.0" standalone="no"?>
<!DOCTYPE svg PUBLIC "-//W3C//DTD SVG 20010904//EN"
 "http://www.w3.org/TR/2001/REC-SVG-20010904/DTD/svg10.dtd">
<svg version="1.0" xmlns="http://www.w3.org/2000/svg"
 width="160.000000pt" height="108.000000pt" viewBox="0 0 160.000000 108.000000"
 preserveAspectRatio="xMidYMid meet">
<metadata>
Created by potrace 1.15, written by Peter Selinger 2001-2017
</metadata>
<g transform="translate(0.000000,108.000000) scale(0.100000,-0.100000)"
fill="#000000" stroke="none">
<path d="M139 1051 l-29 -29 0 -391 0 -391 -55 0 -55 0 0 -84 c0 -97 17 -128
78 -146 25 -8 263 -10 750 -8 l714 3 29 33 c27 30 29 38 29 117 l0 85 -50 0
-50 0 0 391 0 391 -29 29 -29 29 -637 0 -637 0 -29 -29z m1299 -27 l22 -15 0
-385 0 -384 -250 0 -250 0 -6 -27 c-16 -77 -11 -75 -150 -71 -138 3 -154 10
-154 70 l0 28 -250 0 -250 0 0 382 c0 341 2 383 17 400 15 17 48 18 632 18
542 0 619 -2 639 -16z m-823 -853 c13 -58 33 -66 185 -69 130 -3 140 -2 160
18 11 11 23 34 27 50 l6 30 283 0 284 0 0 -55 c0 -46 -4 -60 -25 -80 l-24 -25
-703 0 c-683 0 -704 1 -735 20 -31 19 -33 23 -33 80 l0 60 284 0 284 0 7 -29z"/>
<path d="M265 917 c-3 -7 -4 -140 -3 -297 3 -262 4 -285 21 -288 16 -3 17 15
17 277 l0 281 500 0 500 0 2 -277 c3 -256 4 -278 21 -281 16 -3 17 14 15 295
l-3 298 -533 3 c-423 2 -534 0 -537 -11z"/>
<path d="M704 608 c-68 -68 -124 -129 -124 -135 0 -6 7 -14 16 -17 19 -7 266
230 262 253 -7 36 -37 16 -154 -101z"/>
</g>
</svg>
