<?xml version="1.0" standalone="no"?>
<!DOCTYPE svg PUBLIC "-//W3C//DTD SVG 20010904//EN"
 "http://www.w3.org/TR/2001/REC-SVG-20010904/DTD/svg10.dtd">
<svg version="1.0" xmlns="http://www.w3.org/2000/svg"
 width="138.000000pt" height="121.000000pt" viewBox="0 0 138.000000 121.000000"
 preserveAspectRatio="xMidYMid meet">
<metadata>
Created by potrace 1.15, written by Peter Selinger 2001-2017
</metadata>
<g transform="translate(0.000000,121.000000) scale(0.100000,-0.100000)"
fill="#000000" stroke="none">
<path d="M320 1116 c0 -79 3 -96 15 -96 12 0 15 15 15 75 l0 75 403 0 c222 0
445 -3 495 -6 l92 -7 0 -313 0 -314 -241 0 -240 0 27 50 c24 44 26 55 17 84
-10 32 -6 42 59 157 43 77 65 126 59 132 -16 16 -27 1 -95 -122 -57 -103 -70
-119 -98 -127 -26 -7 -51 -33 -111 -114 -43 -58 -84 -104 -90 -102 -7 2 -69
31 -139 64 -119 57 -128 63 -128 89 0 15 -5 31 -11 35 -7 4 0 18 20 38 110
114 36 303 -126 323 -132 15 -249 -102 -228 -228 9 -51 56 -114 104 -139 44
-22 131 -27 175 -10 23 9 26 7 26 -14 0 -24 -2 -24 -109 -28 -92 -2 -114 -6
-137 -24 -62 -46 -66 -58 -65 -215 0 -79 4 -197 7 -262 l7 -117 215 0 215 0
-6 189 -7 190 103 -50 c56 -27 112 -49 123 -49 36 0 71 37 129 138 30 53 55
91 55 83 0 -11 44 -12 248 -9 136 3 255 8 265 12 16 8 17 34 17 352 l0 344
-453 0 c-250 0 -488 3 -530 6 l-77 7 0 -97z m-50 -122 c73 -20 128 -103 115
-173 -15 -81 -106 -149 -187 -138 -85 11 -148 82 -148 165 0 65 60 135 131
152 34 8 44 7 89 -6z m598 -349 c3 -24 -156 -303 -183 -321 -17 -11 -36 -5
-144 47 -68 32 -126 59 -128 59 -3 0 -3 -90 -1 -200 l3 -200 -181 0 -181 0 -6
167 c-11 258 -9 305 9 332 29 40 90 61 185 61 l86 0 153 -75 c84 -41 158 -75
164 -75 6 0 24 19 41 43 107 153 137 188 158 185 13 -2 23 -11 25 -23z"/>
</g>
</svg>
