<svg xmlns="http://www.w3.org/2000/svg" width="59" height="43" viewBox="0 0 59 43">
    <g fill="none" fill-rule="nonzero">
        <path fill="#000" d="M14.109 34a5.017 5.017 0 0 1-3.643-1.578l-.012-.013c-1.895-1.985-1.942-5.069-.116-7.498C13.65 20.508 23.402 6.364 23.5 6.22c.047-.066.098-.13.153-.188 1.437-1.505 3.492-2.244 5.508-1.98l7.474.6c.814.065 1.423.809 1.36 1.661-.062.853-.773 1.49-1.586 1.426l-7.511-.603a1.386 1.386 0 0 1-.08-.008 3.59 3.59 0 0 0-2.997 1.015c-.986 1.43-9.93 14.386-13.16 18.683-.736.978-1.057 2.406-.116 3.392l.011.012c.857.897 2.25.898 3.107 0l5.29-5.567a1.43 1.43 0 0 1 2.09-.004c.579.603.581 1.584.005 2.19l-5.293 5.569A5.023 5.023 0 0 1 14.11 34z"/>
        <path fill="#FFF" d="M41.05 25.079l-10.517.082c-2.062 0-3.734-1.615-3.734-3.607v-.017c0-1.75 1.29-3.208 3.001-3.537H5.651C3.635 18 2 19.58 2 21.528v15.944C2 39.421 3.635 41 5.651 41H41.35C43.365 41 45 39.42 45 37.472v-13.83a6.255 6.255 0 0 1-3.95 1.437z"/>
        <g fill="#000">
            <path d="M41.61 42.941H5.25c-2.894 0-5.249-2.4-5.249-5.35V20.45c0-2.95 2.355-5.35 5.249-5.35h24.598a1.54 1.54 0 0 1 1.522 1.406 1.555 1.555 0 0 1-1.224 1.682c-1.057.215-1.825 1.17-1.825 2.273v.017c0 1.278 1.02 2.318 2.273 2.318l10.7-.088a4.667 4.667 0 0 0 3.038-1.166 1.507 1.507 0 0 1 1.636-.236c.544.254.892.808.892 1.417V37.59c0 2.95-2.354 5.351-5.249 5.351zM5.25 18.22c-1.208 0-2.19 1.001-2.19 2.233V37.59c0 1.231.982 2.232 2.19 2.232H41.61c1.208 0 2.19-1.001 2.19-2.232v-12.2a7.628 7.628 0 0 1-2.482.438l-10.712.088c-2.953 0-5.345-2.439-5.345-5.437v-.017c0-.794.17-1.554.477-2.243H5.248z"/>
            <path d="M23.349 42.913c-7.514 0-13.627-6.232-13.627-13.892 0-7.66 6.113-13.892 13.627-13.892.844 0 1.53.698 1.53 1.559 0 .86-.686 1.56-1.53 1.56-5.828 0-10.568 4.832-10.568 10.773 0 5.94 4.74 10.774 10.568 10.774 5.827 0 10.568-4.833 10.568-10.774 0-.861.684-1.56 1.529-1.56.845 0 1.53.699 1.53 1.56 0 7.66-6.113 13.892-13.627 13.892z"/>
            <path d="M22.851 35.624c-2.17-.074-3.944-1.217-3.944-2.398 0-.627.543-1.55 1.23-1.55.76 0 1.375 1.089 2.714 1.329v-2.988c-1.664-.646-3.618-1.439-3.618-3.8 0-2.342 1.7-3.467 3.618-3.744v-.516c0-.259.29-.498.688-.498.344 0 .687.24.687.498v.46c1.122.038 3.239.333 3.239 1.605 0 .498-.326 1.513-1.122 1.513-.597 0-.94-.59-2.117-.683v2.693c1.647.627 3.564 1.494 3.564 3.984 0 2.287-1.447 3.67-3.564 4.021v.535c0 .258-.344.498-.687.498-.398 0-.688-.24-.688-.498v-.461zm.181-8.521v-2.195c-.814.166-1.158.59-1.158 1.032 0 .535.47.867 1.158 1.163zm1.013 3.412v2.472c.615-.148 1.104-.498 1.104-1.162 0-.61-.452-.997-1.104-1.31z"/>
            <path d="M30.606 26.04c-2.953 0-5.345-2.44-5.345-5.437v-.018c0-2.997 2.392-5.436 5.332-5.436h11.535c.844 0 1.53.698 1.53 1.56 0 .86-.686 1.559-1.53 1.559H30.593c-1.253 0-2.273 1.04-2.273 2.317v.018c0 1.278 1.02 2.318 2.273 2.318l10.7-.088a4.642 4.642 0 0 0 3.296-1.408l7.797-7.948a1.51 1.51 0 0 1 2.163 0 1.581 1.581 0 0 1 0 2.205l-7.797 7.948a7.657 7.657 0 0 1-5.434 2.321l-10.712.088z"/>
        </g>
        <path fill="#FFF" d="M49.086.722l9.192 9.192-6.364 6.364-9.192-9.192z"/>
        <path fill="#000" d="M51.434 18c-.382 0-.765-.146-1.057-.438l-8.94-8.94a1.495 1.495 0 0 1 0-2.114l6.071-6.07a1.495 1.495 0 0 1 2.115 0l8.94 8.94c.583.583.583 1.53 0 2.114l-6.071 6.07a1.492 1.492 0 0 1-1.058.438zM44.61 7.566l6.825 6.825 3.957-3.957-6.825-6.825-3.957 3.957z"/>
    </g>
</svg>
