<svg xmlns="http://www.w3.org/2000/svg" width="49" height="50" viewBox="0 0 49 50">
    <g fill="none" fill-rule="nonzero">
        <path fill="#FFF" d="M25.431 1v6.39a5.604 5.604 0 0 0-3.01-.698c-2.863.142-5.21 2.483-5.407 5.397-.23 3.398 2.407 6.227 5.692 6.227.987 0 1.916-.256 2.725-.705V24H31.2a5.948 5.948 0 0 1-.161-2.078c.274-2.816 2.554-5.049 5.326-5.218 3.31-.203 6.058 2.474 6.058 5.805 0 .515-.066 1.015-.19 1.491H48V6.452C48 3.44 45.605 1 42.65 1H25.431z"/>
        <g fill="#000">
            <path d="M47.505 25.843H41.73c-.455 0-.884-.214-1.161-.579a1.498 1.498 0 0 1-.256-1.284c.094-.36.142-.73.142-1.104 0-2.371-1.906-4.3-4.248-4.3-.088 0-.177.002-.265.007-2.055.125-3.758 1.783-3.962 3.856a4.38 4.38 0 0 0 .1 1.46c.046.145.072.3.072.46 0 .82-.656 1.484-1.465 1.484H24.909c-.809 0-1.465-.664-1.465-1.484v-4.284a7.1 7.1 0 0 1-1.263.114 7.163 7.163 0 0 1-5.248-2.31 7.262 7.262 0 0 1-1.913-5.469c.25-3.667 3.174-6.568 6.804-6.747a7.122 7.122 0 0 1 1.62.104V1.483C23.444.664 24.1 0 24.91 0h17.24c3.76 0 6.82 3.098 6.82 6.906v17.453c0 .82-.655 1.484-1.464 1.484zm-4.12-2.967h2.655V6.907c0-2.173-1.746-3.94-3.891-3.94H26.374v4.872c0 .523-.272 1.008-.717 1.275a1.45 1.45 0 0 1-1.448.028 4.2 4.2 0 0 0-2.243-.515c-2.11.104-3.878 1.856-4.023 3.988a4.303 4.303 0 0 0 1.132 3.242 4.184 4.184 0 0 0 3.106 1.367c.709 0 1.41-.18 2.028-.52a1.449 1.449 0 0 1 1.448.027c.445.267.717.752.717 1.275v4.872h2.655c0-.243.012-.487.035-.73.345-3.509 3.226-6.314 6.703-6.525.146-.008.294-.013.44-.013 3.958 0 7.178 3.26 7.178 7.267zM12.802 34.39c-.17 0-.341-.007-.513-.019-3.623-.252-6.488-3.213-6.665-6.888a7.347 7.347 0 0 1 .862-3.833 1.456 1.456 0 0 1 1.987-.593c.71.391.973 1.292.586 2.011a4.35 4.35 0 0 0-.509 2.27c.103 2.138 1.834 3.927 3.94 4.074a4.186 4.186 0 0 0 3.202-1.146 4.285 4.285 0 0 0 1.35-3.145c0-.717-.178-1.427-.514-2.052a1.493 1.493 0 0 1 .586-2.012c.71-.392 1.6-.126 1.987.593a7.336 7.336 0 0 1-1.41 8.784 7.057 7.057 0 0 1-4.89 1.955z"/>
            <path d="M7.772 25.843H1.496c-.81 0-1.465-.664-1.465-1.483V6.906C.03 3.098 3.09 0 6.85 0h18.705c.81 0 1.465.664 1.465 1.483 0 .82-.656 1.483-1.465 1.483H6.852c-2.146 0-3.891 1.767-3.891 3.94v15.97h4.811c.81 0 1.465.664 1.465 1.483 0 .82-.655 1.484-1.465 1.484z"/>
            <path d="M24.993 50H6.852C3.09 50 .03 46.902.03 43.094V24.157c0-.819.656-1.483 1.465-1.483s1.465.664 1.465 1.483v18.937c0 2.173 1.745 3.94 3.89 3.94h16.677v-4.872c0-.523.273-1.008.717-1.275a1.45 1.45 0 0 1 1.449-.028 4.2 4.2 0 0 0 2.242.515c2.111-.104 3.878-1.856 4.023-3.988a4.303 4.303 0 0 0-1.131-3.242 4.184 4.184 0 0 0-3.107-1.367c-.708 0-1.41.18-2.027.52-.71.392-1.6.127-1.987-.593a1.492 1.492 0 0 1 .586-2.012 7.12 7.12 0 0 1 3.428-.881c1.983 0 3.895.842 5.248 2.309a7.262 7.262 0 0 1 1.913 5.47c-.249 3.667-3.174 6.568-6.803 6.747a7.163 7.163 0 0 1-1.62-.104v4.284c0 .819-.656 1.483-1.466 1.483z"/>
        </g>
    </g>
</svg>
