<svg xmlns="http://www.w3.org/2000/svg" width="57" height="51" viewBox="0 0 57 51">
    <g fill="none" fill-rule="nonzero">
        <path fill="#FFF" d="M32.51 20c-2.096 0-3.036 1.088-3.406 1.728-.046.08-.172.08-.218 0-.37-.64-1.304-1.728-3.4-1.728C23.1 20 21 21.51 21 24.267c0 1.116.245 2.072.926 3.14 1.388 2.173 5.96 4.991 6.899 5.547a.336.336 0 0 0 .34 0c.94-.553 5.512-3.357 6.91-5.548.681-1.067.925-2.023.925-3.139C37 21.51 34.897 20 32.51 20z"/>
        <g fill="#000">
            <path d="M28.199 35.53c-.356 0-.704-.101-1.004-.291-.917-.581-5.57-3.61-7.126-6.218-.766-1.284-1.107-2.522-1.107-4.015 0-3.44 2.468-5.936 5.87-5.936 1.535 0 2.622.5 3.368 1.088.747-.588 1.835-1.088 3.373-1.088 3.403 0 5.873 2.497 5.873 5.936 0 1.495-.341 2.733-1.106 4.015-1.567 2.628-6.224 5.642-7.141 6.22-.3.189-.646.289-1 .289zM24.83 22.172c-1.265 0-2.743.743-2.743 2.834 0 .93.195 1.636.671 2.435.821 1.377 3.487 3.435 5.441 4.742 1.954-1.3 4.622-3.355 5.449-4.742.476-.797.67-1.503.67-2.435 0-2.092-1.48-2.834-2.747-2.834-.911 0-1.547.322-1.89.958-.294.542-.862.88-1.483.88a1.681 1.681 0 0 1-1.484-.883c-.341-.633-.975-.955-1.884-.955z"/>
            <path d="M14.359 50.998c-.895 0-2.178-.408-4.906-3.437a48.54 48.54 0 0 1-2.497-3.03 1.552 1.552 0 0 1-.112-.171 6.377 6.377 0 0 1-.812-3.108v-7.42c0-.856.7-1.55 1.564-1.55h9.55c1.468 0 2.854.563 3.9 1.585l4.89 4.773a3.952 3.952 0 0 1 .01 5.62 4.029 4.029 0 0 1-5.663.007l-4.78-4.741c-.24-.003-.58-.005-1.066-.008a1.557 1.557 0 0 1-1.556-1.559 1.557 1.557 0 0 1 1.564-1.543h.008c.59.003 1.022.007 1.307.01.59.008 1.054.014 1.51.466l5.223 5.182a.878.878 0 0 0 1.234 0 .864.864 0 0 0 .008-1.231l-4.881-4.765a2.431 2.431 0 0 0-1.708-.694H9.159v5.868c0 .528.129 1.051.374 1.52 1.868 2.478 4.123 4.827 4.917 5.124l12.703-.002c.789 0 1.757-.433 2.681-.877.758-.365 6.552-4.254 10.424-6.899.026-.018.052-.035.08-.051a1.034 1.034 0 0 0-.288-1.896 1.046 1.046 0 0 0-.769.105l-7.077 4.657c-.72.473-1.69.278-2.167-.436a1.544 1.544 0 0 1 .439-2.15l7.112-4.679.057-.036a4.173 4.173 0 0 1 3.158-.471 4.142 4.142 0 0 1 2.57 1.882 4.126 4.126 0 0 1-1.377 5.654c-1.67 1.14-9.566 6.52-10.8 7.112-1.25.6-2.593 1.187-4.043 1.187l-12.794.002z"/>
        </g>
        <path fill="#FFF" d="M1 32h8v16H1z"/>
        <g fill="#000">
            <path d="M9.74 49.952H1.58c-.873 0-1.58-.714-1.58-1.594v-15.9c0-.88.707-1.594 1.58-1.594h8.16c.873 0 1.58.713 1.58 1.593v15.901c0 .88-.707 1.594-1.58 1.594zM3.16 46.764H8.16V34.051H3.16v12.713zM49.388 19.234H39.74a5.561 5.561 0 0 1-3.94-1.628L30.86 12.7c-1.585-1.598-1.585-4.184-.01-5.774a4.021 4.021 0 0 1 5.721-.008l4.829 4.873c.242.002.586.005 1.077.007a1.587 1.587 0 0 1 1.571 1.602 1.587 1.587 0 0 1-1.579 1.586h-.008c-.597-.003-1.033-.007-1.321-.01-.595-.008-1.065-.014-1.525-.479l-5.277-5.325a.876.876 0 0 0-1.246 0 .898.898 0 0 0-.008 1.265l4.93 4.897c.464.46 1.077.713 1.726.713h8.069v-6.03c0-.542-.13-1.08-.378-1.561-1.887-2.547-4.165-4.96-4.968-5.267l-12.833.002c-.797 0-1.775.446-2.709.902-.766.375-6.619 4.371-10.53 7.089a1.56 1.56 0 0 1-.08.052c-.5.304-.661.96-.36 1.464a1.05 1.05 0 0 0 1.426.376l7.15-4.784a1.571 1.571 0 0 1 2.19.447 1.603 1.603 0 0 1-.444 2.21l-7.185 4.807c-.019.013-.038.026-.058.037a4.155 4.155 0 0 1-3.19.485 4.19 4.19 0 0 1-2.595-1.934c-1.19-1.994-.565-4.588 1.39-5.81 1.686-1.172 9.664-6.7 10.91-7.309C26.81.606 28.165.003 29.63.003L42.555.002c.905 0 2.2.42 4.957 3.533a49.72 49.72 0 0 1 2.523 3.112c.041.057.079.115.113.177.536.975.82 2.079.82 3.194v7.623c0 .88-.707 1.594-1.58 1.594z"/>
        </g>
        <path fill="#FFF" d="M48 3h8v16h-8z"/>
        <path fill="#000" d="M55.465 20h-7.93C46.687 20 46 19.29 46 18.414V2.586C46 1.71 46.687 1 47.535 1h7.93C56.313 1 57 1.71 57 2.586v15.828C57 19.29 56.313 20 55.465 20zm-6.396-3.173h4.862V4.173h-4.862v12.654z"/>
    </g>
</svg>
