<?xml version="1.0" standalone="no"?>
<!DOCTYPE svg PUBLIC "-//W3C//DTD SVG 20010904//EN"
 "http://www.w3.org/TR/2001/REC-SVG-20010904/DTD/svg10.dtd">
<svg version="1.0" xmlns="http://www.w3.org/2000/svg"
 width="148.000000pt" height="120.000000pt" viewBox="0 0 148.000000 120.000000"
 preserveAspectRatio="xMidYMid meet">
<metadata>
Created by potrace 1.15, written by Peter Selinger 2001-2017
</metadata>
<g transform="translate(0.000000,120.000000) scale(0.100000,-0.100000)"
fill="#000000" stroke="none">
<path d="M432 1186 c-56 -26 -98 -64 -128 -118 -25 -46 -29 -64 -29 -128 1
-90 22 -138 89 -197 115 -102 297 -78 383 50 86 128 55 280 -76 372 -38 27
-52 30 -124 33 -56 1 -93 -3 -115 -12z m175 -31 c92 -39 153 -124 153 -215 -1
-135 -150 -255 -276 -221 -98 26 -165 105 -172 201 -6 81 16 138 73 188 68 60
149 77 222 47z"/>
<path d="M1060 794 c-74 -32 -113 -90 -113 -169 0 -93 64 -169 148 -176 62 -5
85 2 121 33 70 61 91 146 55 223 -22 48 -44 69 -94 90 -45 19 -72 19 -117 -1z
m152 -73 c33 -35 38 -46 38 -88 0 -57 -26 -105 -72 -133 -39 -24 -67 -25 -112
-6 -71 30 -105 128 -68 196 30 55 78 83 132 77 36 -4 51 -13 82 -46z"/>
<path d="M244 615 c-116 -56 -196 -154 -229 -282 -15 -58 -20 -226 -9 -295 l7
-38 333 0 334 0 0 58 c0 155 78 304 200 382 48 31 49 32 36 58 -31 59 -105
115 -189 142 -36 11 -39 10 -65 -16 -35 -35 -98 -64 -142 -64 -40 0 -109 29
-157 66 -17 13 -35 24 -40 24 -4 0 -40 -16 -79 -35z m91 -15 c13 -20 94 -60
141 -69 68 -13 135 3 190 45 l45 34 54 -26 c29 -15 68 -42 87 -61 32 -33 32
-35 13 -46 -38 -21 -127 -112 -152 -155 -34 -57 -59 -142 -68 -224 l-7 -68
-298 0 -297 0 -7 46 c-17 125 -1 228 49 331 40 81 93 134 176 175 61 31 65 32
74 18z"/>
<path d="M945 418 c-63 -32 -131 -104 -161 -171 -28 -64 -52 -191 -41 -220 6
-15 39 -17 373 -17 l366 0 -4 88 c-3 57 -13 107 -28 147 -29 74 -105 158 -166
181 -43 16 -43 16 -74 -10 -56 -47 -123 -47 -183 -2 -40 31 -32 30 -82 4z
m141 -74 c48 -9 95 2 134 31 l33 24 37 -19 c46 -23 96 -80 120 -134 19 -46 40
-134 40 -171 l0 -25 -336 0 -337 0 7 62 c11 108 68 205 154 259 l43 27 36 -24
c19 -13 50 -26 69 -30z"/>
</g>
</svg>
